<svg width="70" height="24" viewBox="0 0 70 24" fill="none" xmlns="http://www.w3.org/2000/svg">
<path d="M4.01342 16.8057C4.30821 17.5658 4.71634 18.2158 5.23788 18.7556C5.75943 19.2954 6.37731 19.7085 7.09152 19.995C7.8058 20.2814 8.5824 20.4246 9.42139 20.4246C10.2377 20.4246 11.003 20.2758 11.7172 19.9784C12.4315 19.6809 13.055 19.2623 13.5879 18.7225C14.1207 18.1827 14.5346 17.5383 14.8294 16.7891C15.1241 16.04 15.2715 15.2028 15.2715 14.2774V0H18.8428V23.1346H15.3055V20.9864C14.5119 21.8015 13.5765 22.4295 12.4995 22.8702C11.4224 23.3108 10.2604 23.5312 9.01326 23.5312C7.74341 23.5312 6.55868 23.3163 5.45892 22.8867C4.35923 22.4571 3.40683 21.8457 2.60193 21.0525C1.79704 20.2592 1.16208 19.3064 0.697276 18.1937C0.2324 17.0811 0 15.8417 0 14.4756V0H3.57127V14.2774C3.57127 15.2028 3.71863 16.0455 4.01342 16.8057Z" fill="white"/>
<path d="M24.9987 0V8.42758C25.7923 7.65644 26.7107 7.04508 27.7537 6.59337C28.7967 6.14165 29.9305 5.91583 31.1549 5.91583C32.4247 5.91583 33.615 6.14713 34.7262 6.60982C35.8372 7.07251 36.8008 7.70046 37.6172 8.49369C38.4335 9.28692 39.0798 10.2233 39.5559 11.3029C40.0321 12.3825 40.2701 13.5282 40.2701 14.7401C40.2701 15.9518 40.0321 17.092 39.5559 18.1606C39.0798 19.2292 38.4335 20.1601 37.6172 20.9532C36.8008 21.7465 35.8372 22.3744 34.7262 22.8371C33.615 23.2998 32.4247 23.5311 31.1549 23.5311C29.9304 23.5311 28.7911 23.3053 27.7367 22.8536C26.6823 22.4019 25.7583 21.7905 24.9647 21.0193V23.1345H21.5635V0H24.9987ZM25.3898 17.0204C25.6959 17.7255 26.1211 18.3425 26.6653 18.8713C27.2095 19.4 27.8444 19.8187 28.57 20.1272C29.2956 20.4356 30.0779 20.5899 30.9169 20.5899C31.7332 20.5899 32.5041 20.4356 33.2296 20.1272C33.9552 19.8187 34.5844 19.4001 35.1174 18.8713C35.6502 18.3425 36.0753 17.7255 36.3928 17.0204C36.7102 16.3154 36.8689 15.5553 36.8689 14.7401C36.8689 13.9248 36.7102 13.1592 36.3928 12.4431C36.0753 11.727 35.6502 11.1046 35.1174 10.5758C34.5845 10.0471 33.9553 9.63392 33.2296 9.3365C32.504 9.03909 31.7331 8.89027 30.9169 8.89027C30.1006 8.89027 29.3296 9.03901 28.6041 9.3365C27.8785 9.63399 27.2436 10.0471 26.6993 10.5758C26.1552 11.1046 25.7243 11.727 25.4069 12.4431C25.0895 13.1592 24.9307 13.9248 24.9307 14.7401C24.9307 15.5553 25.0837 16.3154 25.3898 17.0204Z" fill="white"/>
<path d="M42.2084 11.336C42.6619 10.2784 43.2856 9.34751 44.0791 8.54332C44.8726 7.73912 45.8137 7.10568 46.9021 6.64299C47.9905 6.18031 49.1696 5.949 50.4394 5.949C51.6865 5.949 52.8429 6.16934 53.9087 6.60994C54.9743 7.05061 55.8927 7.66204 56.6636 8.44423C57.4346 9.22634 58.0355 10.1518 58.4662 11.2203C58.8971 12.289 59.1125 13.4512 59.1125 14.7071V15.7978H44.9975C45.1109 16.4808 45.3376 17.1142 45.6777 17.698C46.0179 18.2819 46.443 18.7887 46.9532 19.2183C47.4633 19.648 48.0416 19.984 48.6878 20.2263C49.3341 20.4686 50.0199 20.5899 50.7455 20.5899C52.809 20.5899 54.4756 19.7636 55.7454 18.1111L58.2283 19.8958C57.3666 21.0195 56.3009 21.9008 55.0312 22.5397C53.7613 23.1787 52.3328 23.4982 50.7456 23.4982C49.4531 23.4982 48.2457 23.2777 47.1233 22.8371C46.0009 22.3965 45.0259 21.7796 44.1983 20.9863C43.3707 20.1931 42.7188 19.2622 42.2426 18.1937C41.7665 17.1251 41.5283 15.9628 41.5283 14.707C41.5282 13.5172 41.755 12.3935 42.2084 11.336ZM46.9872 10.0305C46.0235 10.8127 45.383 11.8537 45.0655 13.1536H55.6433C55.3485 11.8537 54.7193 10.8127 53.7556 10.0305C52.7919 9.24835 51.6639 8.85726 50.3714 8.85726C49.0789 8.85726 47.9509 9.24835 46.9872 10.0305Z" fill="white"/>
<path d="M65.5406 10.4105C64.815 11.1817 64.4522 12.2282 64.4522 13.5502V23.1346H61.0169V6.27939H64.4181V8.36152C64.849 7.67849 65.4102 7.13866 66.1017 6.74208C66.7933 6.34543 67.6153 6.1471 68.5677 6.1471H69.758V9.25376H68.3295C67.1958 9.25384 66.2662 9.63937 65.5406 10.4105Z" fill="white"/>
</svg>
